<svg width="866" height="683" viewBox="0 0 866 683" fill="none" xmlns="http://www.w3.org/2000/svg">
<g id="Nature 1">
<g id="background">
<path id="Vector" d="M777.14 341.45C777.14 344.517 777.1 347.573 777.02 350.62C777.02 352.2 776.92 353.77 776.85 355.34C775.172 396.6 765.67 437.166 748.85 474.88C747.85 477.02 746.92 479.16 745.91 481.28C745.3 482.59 744.68 483.88 744.04 485.18C738.109 497.294 731.429 509.026 724.04 520.31C708.137 544.681 689.074 566.837 667.35 586.2C663.303 589.807 659.163 593.317 654.93 596.73C651.85 599.21 648.727 601.633 645.56 604C590.259 645.312 523.328 668.114 454.308 669.153C385.287 670.193 317.7 649.418 261.18 609.79C259.07 608.31 256.98 606.79 254.91 605.27C247.577 599.857 240.49 594.15 233.65 588.15L233.48 588C228.047 583.253 222.78 578.323 217.68 573.21C195.556 551.126 176.699 525.996 161.68 498.58C157.62 491.173 153.847 483.593 150.36 475.84C149.36 473.55 148.36 471.26 147.36 468.95C146.513 466.95 145.687 464.93 144.88 462.89C125.059 413.157 117.719 359.327 123.504 306.103C129.288 252.879 148.019 201.882 178.061 157.568C208.103 113.254 248.541 76.9717 295.84 51.8927C343.14 26.8137 395.863 13.7008 449.4 13.7C569.17 13.7 673.94 78 731.1 173.86C733.1 177.193 735.04 180.583 736.92 184.03C740.427 190.41 743.72 196.92 746.8 203.56C748.86 207.97 750.8 212.45 752.68 216.96C768.886 256.461 777.196 298.754 777.14 341.45V341.45Z" fill="#0071F2"/>
<path id="Vector_2" opacity="0.7" d="M777.14 341.45C777.14 344.517 777.1 347.573 777.02 350.62C777.02 352.2 776.92 353.77 776.85 355.34C775.172 396.6 765.67 437.166 748.85 474.88C747.85 477.02 746.92 479.16 745.91 481.28C745.3 482.59 744.68 483.88 744.04 485.18C738.109 497.294 731.429 509.026 724.04 520.31C708.137 544.681 689.074 566.837 667.35 586.2C663.303 589.807 659.163 593.317 654.93 596.73C651.85 599.21 648.727 601.633 645.56 604C590.259 645.312 523.328 668.114 454.308 669.153C385.287 670.193 317.7 649.418 261.18 609.79C259.07 608.31 256.98 606.79 254.91 605.27C247.577 599.857 240.49 594.15 233.65 588.15L233.48 588C228.047 583.253 222.78 578.323 217.68 573.21C195.556 551.126 176.699 525.996 161.68 498.58C157.62 491.173 153.847 483.593 150.36 475.84C149.36 473.55 148.36 471.26 147.36 468.95C146.513 466.95 145.687 464.93 144.88 462.89C125.059 413.157 117.719 359.327 123.504 306.103C129.288 252.879 148.019 201.882 178.061 157.568C208.103 113.254 248.541 76.9717 295.84 51.8927C343.14 26.8137 395.863 13.7008 449.4 13.7C569.17 13.7 673.94 78 731.1 173.86C733.1 177.193 735.04 180.583 736.92 184.03C740.427 190.41 743.72 196.92 746.8 203.56C748.86 207.97 750.8 212.45 752.68 216.96C768.886 256.461 777.196 298.754 777.14 341.45V341.45Z" fill="white"/>
<path id="Vector_3" d="M539.65 571.49C539.65 571.49 570.92 546.22 606.65 566.89C606.65 566.89 605.77 584.03 600.65 592.89C600.65 592.89 609.3 586.89 616.2 573.45C616.2 573.45 630.51 583.17 633.69 604.02L570.43 596.95L543.53 583.5L539.65 571.49Z" fill="#0071F2"/>
<path id="Vector_4" opacity="0.1" d="M539.65 571.49C539.65 571.49 570.92 546.22 606.65 566.89C606.65 566.89 605.77 584.03 600.65 592.89C600.65 592.89 609.3 586.89 616.2 573.45C616.2 573.45 630.51 583.17 633.69 604.02L570.43 596.95L543.53 583.5L539.65 571.49Z" fill="white"/>
<path id="Vector_5" d="M449.54 456.95C558.887 456.95 647.53 368.307 647.53 258.96C647.53 149.613 558.887 60.97 449.54 60.97C340.193 60.97 251.55 149.613 251.55 258.96C251.55 368.307 340.193 456.95 449.54 456.95Z" fill="#0071F2"/>
<path id="Vector_6" d="M340.55 581.38L366.17 529.7L456.56 471.34H481.83L502.81 512.62L536.27 555.32L546.24 581.38L448.02 605.5L340.55 581.38Z" fill="#2F2E41"/>
<path id="Vector_7" opacity="0.3" d="M383.25 578.1L395.35 531.48L481.83 471.34L502.81 512.62L402.47 550.7L383.25 578.1Z" fill="black"/>
<path id="Vector_8" opacity="0.1" d="M432.61 602.04L423.11 552.47L502.81 512.62L536.27 555.32L546.24 581.38L448.02 605.5L432.61 602.04Z" fill="black"/>
<path id="Vector_9" opacity="0.2" d="M395.35 531.48L366.17 529.7L456.56 471.34H481.83L395.35 531.48Z" fill="black"/>
<path id="Vector_10" opacity="0.2" d="M402.47 550.7L423.11 552.47L502.81 512.62L402.47 550.7Z" fill="black"/>
<path id="Vector_11" d="M291.3 570.12L290.17 597.88L261.17 609.79C259.06 608.31 256.97 606.79 254.9 605.27C247.513 599.81 240.37 594.053 233.47 588L233.33 565L245.91 560C245.91 560 240.36 585.23 241.54 585C242.72 584.77 255.31 553.77 255.31 553.77H264L262 585L272.67 559.71C272.67 559.71 278.69 565.19 291.3 570.12Z" fill="#0071F2"/>
<path id="Vector_12" d="M645.58 604C589.222 646.103 520.813 668.958 450.465 669.187C380.116 669.416 311.561 647.006 254.93 605.27H254.8H254.92H255.07H255.36C255.461 605.262 255.562 605.245 255.66 605.22L257.08 605.01L257.85 604.89L260.14 604.5L260.64 604.41H260.85L262.11 604.18H262.22C263.69 603.92 265.29 603.6 267 603.18C267.43 603.1 267.86 603 268.3 602.9L269.65 602.6C270.65 602.37 271.65 602.14 272.65 601.88C273.65 601.62 275.02 601.29 276.24 600.95C278.07 600.46 279.95 599.95 281.85 599.34L284.53 598.49L286.11 597.96H286.23C288.23 597.26 290.28 596.51 292.3 595.7C292.84 595.49 293.37 595.28 293.9 595.05C294.43 594.82 295.2 594.5 295.84 594.22C295.84 594.22 327.12 579.79 371.36 577.13C381.849 576.522 392.367 577.647 402.49 580.46C416.01 584.18 436.12 590.46 450.64 598.19C450.64 598.19 492.7 576.54 542.51 578.77L544.19 578.85C548.52 579.09 552.91 579.51 557.32 580.15L558.97 580.4C560.29 580.6 561.62 580.83 562.97 581.07C564.04 581.28 565.12 581.48 566.21 581.71C567.07 581.89 567.94 582.09 568.81 582.29C569.38 582.41 569.94 582.55 570.51 582.69L572.4 583.16L573.8 583.53C574.6 583.74 575.39 583.97 576.18 584.2L578.07 584.76L579.96 585.36L581.53 585.88C582.27 586.12 583.02 586.38 583.76 586.65C584.5 586.92 585.01 587.09 585.63 587.33C586.25 587.57 586.89 587.8 587.51 588.05L587.82 588.17L589.4 588.81L590.69 589.35C592.15 589.96 593.59 590.61 595.04 591.29C595.07 591.18 621.33 603.75 645.58 604Z" fill="#0071F2"/>
<path id="Vector_13" opacity="0.4" d="M645.58 604C589.222 646.103 520.813 668.958 450.465 669.187C380.116 669.416 311.561 647.006 254.93 605.27H255.07H255.36L255.66 605.22L257.08 605.01L257.85 604.89L260.14 604.5L260.64 604.41H260.85L262.11 604.18H262.22C263.69 603.91 265.29 603.6 267 603.18C267.43 603.1 267.86 603 268.3 602.9L269.65 602.6C270.65 602.37 271.65 602.14 272.65 601.88C273.65 601.62 275.02 601.28 276.24 600.95C278.07 600.46 279.95 599.95 281.85 599.34C282.74 599.07 283.63 598.78 284.53 598.49L286.11 597.96H286.23C288.23 597.26 290.28 596.51 292.3 595.7C292.84 595.49 293.37 595.28 293.9 595.05C294.43 594.82 295.2 594.5 295.84 594.22C295.84 594.22 327.12 579.79 371.36 577.13C381.849 576.522 392.367 577.647 402.49 580.46C416.01 584.18 436.12 590.46 450.64 598.19C450.64 598.19 492.7 576.54 542.51 578.77L544.19 578.85C548.52 579.09 552.91 579.51 557.32 580.15L558.97 580.4C560.29 580.6 561.62 580.83 562.97 581.07C564.04 581.28 565.12 581.48 566.21 581.71C567.07 581.89 567.94 582.09 568.81 582.29C569.38 582.41 569.94 582.55 570.51 582.69L572.4 583.16L573.8 583.53C574.6 583.74 575.39 583.97 576.18 584.2L578.07 584.76L579.96 585.36L581.53 585.88C582.27 586.12 583.02 586.38 583.76 586.65C584.5 586.92 585.01 587.09 585.63 587.33C586.25 587.57 586.89 587.8 587.51 588.05L587.82 588.17L589.4 588.81L590.69 589.35C592.15 589.96 593.59 590.61 595.04 591.29C595.07 591.18 621.33 603.75 645.58 604Z" fill="white"/>
<path id="Vector_14" opacity="0.4" d="M587.85 588.06C524.47 576 476.59 605.5 476.59 605.5C439.59 619.16 408.08 597.88 408.08 597.88C371.86 575.62 289.67 596.95 286.27 597.88C289.48 596.77 292.72 595.54 295.88 594.14C295.88 594.14 327.16 579.71 371.4 577.05C381.889 576.442 392.407 577.567 402.53 580.38C416.05 584.1 436.16 590.38 450.68 598.11C450.68 598.08 521.28 561.74 587.85 588.06Z" fill="white"/>
</g>
<path id="cloud2" d="M746.8 203.56H546.43C557.223 199.114 566.555 191.736 573.37 182.26C583.56 165.69 586.75 167.13 586.75 167.13C593.12 165.37 600.45 178.27 600.45 178.27C609.52 189.27 615.09 190.69 615.09 190.69C628.79 198.5 646.76 178.75 646.76 178.75C667.12 155.81 672.76 153.88 672.76 153.88C689.65 139.88 706.06 164.75 706.06 164.75C715.38 180.75 728.32 175.09 728.32 175.09C729.27 174.65 730.2 174.23 731.1 173.86C733.1 177.193 735.04 180.583 736.92 184.03C740.433 190.41 743.727 196.92 746.8 203.56Z" fill="white"/>
<path id="cloud1" d="M406 130.68H198.41C206.714 120.787 215.592 111.39 225 102.54C228.08 103.47 238.51 105.4 246.36 91.87C246.36 91.87 262.79 67.04 279.66 81.01C279.66 81.01 285.3 82.94 305.66 105.87C305.66 105.87 323.66 125.63 337.32 117.82C337.32 117.82 342.9 116.39 351.98 105.4C351.98 105.4 359.3 92.5 365.67 94.25C365.67 94.25 368.86 92.82 379.05 109.38C385.865 118.86 395.202 126.24 406 130.68V130.68Z" fill="white"/>
<g id="tree6">
<path id="Vector_15" d="M182.52 402.65L171.25 440.25C164.54 463.95 163.71 496.81 163.71 496.81L161.71 498.58C157.65 491.173 153.877 483.593 150.39 475.84V469.77C149.39 469.53 148.39 469.26 147.39 468.95C121.7 460.88 113.25 429.74 113.25 429.74L117.08 427.1C122.35 452.42 136.89 460.39 144.91 462.89C146.692 463.466 148.534 463.838 150.4 464C156.1 408.38 137.21 346.06 137.21 346.06L142.84 340.79C145.84 349.9 152.55 385.37 152.55 385.37L151.84 340.79H159L157.56 479.34L177.46 406.22L182.52 402.65Z" fill="#2F2E41"/>
<path id="Vector_16" d="M147.88 420.38C147.465 422.694 146.794 424.954 145.88 427.12C143.03 433.58 138.73 435.4 134.75 435.38C131.201 435.182 127.768 434.046 124.8 432.09C113.97 424.65 100.11 436.68 100.11 436.68C100.11 436.68 72.3 454.68 62.96 432.61C60.4061 427.766 58.8552 422.457 58.4 417C57.9078 411.593 58.6427 406.144 60.55 401.06C61.9342 397.429 63.874 394.035 66.3 391C70.2399 386.111 75.1966 382.137 80.826 379.355C86.4554 376.573 92.6227 375.05 98.9 374.89C112.9 374.38 134.73 377.72 144.64 395.2C151 406.48 147.88 420.38 147.88 420.38Z" fill="#0071F2"/>
<path id="Vector_17" d="M255 311.07C254.613 317.298 253.69 323.481 252.24 329.55V329.55C252.113 330.117 251.973 330.697 251.82 331.29C245.7 355.23 228.07 387.53 177.77 350.94C177.77 350.94 156.33 335.21 119.36 356.94C119.36 356.94 87.01 379.15 66.26 356.94C66.26 356.94 30.17 320.86 44.61 272.39C48.78 258.39 57.15 243.39 71.84 227.85C72.84 226.8 73.84 225.73 74.94 224.67C74.94 224.67 105.84 191.36 164.73 203.91C164.72 203.9 275.76 214.52 255 311.07Z" fill="#0071F2"/>
<path id="Vector_18" d="M166.19 382.25C166.19 382.25 164.26 353.38 193.14 353.32C193.14 353.32 219.84 356.82 215.26 387.84C215.26 387.84 212.95 407.24 198.72 400.44L166.19 382.25Z" fill="#0071F2"/>
<path id="Vector_19" opacity="0.3" d="M148.69 420.296C148.275 422.61 147.604 424.871 146.69 427.036C143.84 433.496 139.54 435.316 135.56 435.296C132.011 435.098 128.578 433.963 125.61 432.006C114.78 424.566 100.92 436.596 100.92 436.596C100.92 436.596 73.1102 454.596 63.7702 432.526C61.2163 427.683 59.6654 422.373 59.2102 416.916C58.7179 411.509 59.4529 406.06 61.3602 400.976C62.7443 397.346 64.6841 393.952 67.1102 390.916C71.0501 386.027 76.0068 382.054 81.6362 379.272C87.2656 376.49 93.4329 374.966 99.7102 374.806C113.71 374.296 135.54 377.636 145.45 395.116C151.81 406.396 148.69 420.296 148.69 420.296Z" fill="white"/>
<path id="Vector_20" opacity="0.3" d="M148.69 420.296C148.275 422.61 147.604 424.871 146.69 427.036C146.54 404.876 131.55 393.586 131.55 393.586C105.17 368.916 61.3602 401.016 61.3602 401.016C62.7406 397.372 64.6806 393.964 67.1102 390.916C71.0501 386.027 76.0068 382.054 81.6362 379.272C87.2656 376.49 93.4329 374.966 99.7102 374.806C113.71 374.296 135.54 377.636 145.45 395.116C151.81 406.396 148.69 420.296 148.69 420.296Z" fill="white"/>
<path id="Vector_21" opacity="0.1" d="M255.81 310.986C255.423 317.214 254.5 323.397 253.05 329.466V329.466C252.924 330.033 252.784 330.613 252.63 331.206C246.51 355.146 228.88 387.446 178.58 350.856C178.58 350.856 157.14 335.126 120.17 356.856C120.17 356.856 87.8202 379.066 67.0702 356.856C67.0702 356.856 30.9802 320.776 45.4202 272.306C49.5902 258.306 57.9602 243.306 72.6502 227.766C73.6502 226.716 74.6502 225.646 75.7502 224.586C75.7502 224.586 106.65 191.276 165.54 203.826C165.53 203.816 276.57 214.436 255.81 310.986Z" fill="white"/>
<path id="Vector_22" opacity="0.1" d="M252.62 331.206C246.5 355.146 228.87 387.446 178.57 350.856C178.57 350.856 157.13 335.126 120.16 356.856C120.16 356.856 87.8102 379.066 67.0602 356.856C67.0602 356.856 30.9702 320.776 45.4102 272.306C45.4102 272.306 48.2302 368.536 115.82 340.726C115.82 340.726 149.61 319.836 197.88 337.136C197.88 337.136 233.88 361.186 252.37 330.546L252.62 331.206Z" fill="white"/>
<path id="Vector_23" opacity="0.2" d="M255.81 310.986C255.423 317.214 254.5 323.397 253.05 329.466V329.466C246.97 338.986 242.37 341.356 242.37 341.356C242.13 321.046 239.24 303.456 234.98 289.446C223.1 250.336 187.56 223.216 146.73 221.386C108.13 219.656 72.6501 227.766 72.6501 227.766C73.6501 226.716 74.6502 225.646 75.7502 224.586C75.7502 224.586 106.65 191.276 165.54 203.826C165.53 203.816 276.57 214.436 255.81 310.986Z" fill="white"/>
<path id="Vector_24" opacity="0.3" d="M167 382.166C167 382.166 165.07 353.296 193.95 353.236C193.95 353.236 220.65 356.736 216.07 387.756C216.07 387.756 213.76 407.156 199.53 400.356L167 382.166Z" fill="white"/>
</g>
<g id="tree5">
<path id="Vector_25" d="M233.66 588.15L233.49 588C228.057 583.253 222.79 578.323 217.69 573.21L219.62 443.14L230 440.25C230 440.25 233.75 564.56 233.66 588.15Z" fill="#2F2E41"/>
<path id="Vector_26" d="M309 513.22C293.28 566.29 267.21 522.87 267.21 522.87C250.87 544.55 241.56 477.71 241.56 477.71C227.71 490.22 225.61 457 225.61 457C221.86 493.19 210.61 477.76 210.61 477.76C198.11 549.32 183.52 522.92 183.52 522.92C157.67 560.29 145.23 522.4 142.93 514.17C142.815 513.751 142.839 513.305 143 512.901C143.16 512.497 143.448 512.156 143.82 511.93C145.32 511.03 148.04 509.34 151.5 506.84C161.24 499.84 176.8 486.47 187.32 466.99C223.04 400.87 222.05 350.99 222.05 350.99H227.26C235.26 404.83 246.36 428.1 246.36 428.1C256.52 464.78 276.91 487.8 291.71 500.38C296.936 504.93 302.6 508.949 308.62 512.38C308.765 512.46 308.881 512.585 308.95 512.737C309.018 512.888 309.036 513.058 309 513.22Z" fill="#0071F2"/>
<path id="Vector_27" d="M303.64 390.27C302.54 393.764 301.179 397.17 299.57 400.46C284.57 430.39 263.73 399.22 263.73 399.22C251.92 419.02 238.38 363.44 238.38 363.44C231.08 370.39 227.62 353.32 227.62 353.32C217.56 372.03 211.62 363.1 211.62 363.1C199.81 421.45 187.62 399.57 187.62 399.57C162.75 434.79 148.87 390.77 148.73 390.28C212.28 360.84 223.4 257.18 223.4 257.18L226.17 247.8C227.88 279.06 241.51 312.05 241.51 312.05C261.75 379.77 303.64 390.27 303.64 390.27Z" fill="#0071F2"/>
<path id="Vector_28" d="M295 286.34C292.54 293.34 289.63 297.69 286.56 300.15C274.9 309.54 260.96 291.9 260.96 291.9C246.37 305.79 238.04 265.9 238.04 265.9C232.13 273.54 224.18 259.01 224.18 259.01C222.18 270.18 213.72 265.21 213.72 265.21C202.26 309.31 191.32 292.3 191.32 292.3C166.12 318.3 156.42 286.05 156.42 286.05C156.42 286.05 207.82 273.89 226.22 181.15C226.22 181.15 235.61 254.44 280.07 279.15L295 286.34Z" fill="#0071F2"/>
<path id="Vector_29" opacity="0.3" d="M309.142 513.07C293.422 566.14 267.352 522.72 267.352 522.72C251.012 544.4 241.702 477.56 241.702 477.56C227.852 490.07 225.752 456.85 225.752 456.85C222.002 493.04 210.752 477.61 210.752 477.61C198.252 549.17 183.662 522.77 183.662 522.77C157.812 560.14 145.372 522.25 143.072 514.02C142.956 513.601 142.981 513.155 143.141 512.751C143.302 512.347 143.59 512.006 143.962 511.78C145.462 510.88 148.182 509.19 151.642 506.69C161.382 499.69 176.942 486.32 187.462 466.84C223.182 400.72 222.192 350.84 222.192 350.84H227.402C235.402 404.68 246.502 427.95 246.502 427.95C256.662 464.63 277.052 487.65 291.852 500.23C297.077 504.78 302.742 508.799 308.762 512.23C308.907 512.31 309.023 512.435 309.091 512.587C309.16 512.738 309.177 512.908 309.142 513.07Z" fill="black"/>
<path id="Vector_30" opacity="0.3" d="M309.142 513.07C293.422 566.14 267.352 522.72 267.352 522.72C251.012 544.4 241.702 477.56 241.702 477.56C227.852 490.07 225.752 456.85 225.752 456.85C222.002 493.04 210.752 477.61 210.752 477.61C198.252 549.17 183.662 522.77 183.662 522.77C157.812 560.14 145.372 522.25 143.072 514.02C142.956 513.601 142.981 513.155 143.141 512.751C143.302 512.347 143.59 512.006 143.962 511.78C145.462 510.88 148.182 509.19 151.642 506.69C152.132 506.51 168.772 500.63 180.522 513.74C180.522 513.74 174.962 488.39 197.182 477.61C197.182 477.61 206.562 472.4 211.072 465.11C211.072 465.11 223.472 440.94 236.262 458.16C237.569 459.952 238.619 461.917 239.382 464C241.692 470.11 248.382 486.63 256.152 496.33C257.714 498.26 259.755 499.746 262.072 500.64C266.108 502.305 269.528 505.18 271.862 508.87C271.862 508.87 283.132 502.04 291.862 500.23C297.087 504.78 302.752 508.799 308.772 512.23C308.915 512.312 309.029 512.438 309.096 512.589C309.162 512.74 309.178 512.909 309.142 513.07V513.07Z" fill="black"/>
<path id="Vector_31" opacity="0.3" d="M303.782 390.12C302.681 393.614 301.321 397.02 299.712 400.31C284.712 430.24 263.872 399.07 263.872 399.07C252.062 418.87 238.522 363.29 238.522 363.29C231.222 370.24 227.762 353.17 227.762 353.17C217.702 371.88 211.762 362.95 211.762 362.95C199.952 421.3 187.762 399.42 187.762 399.42C162.892 434.64 149.012 390.62 148.872 390.13C212.422 360.69 223.542 257.03 223.542 257.03L226.312 247.65C228.022 278.91 241.652 311.9 241.652 311.9C261.892 379.62 303.782 390.12 303.782 390.12Z" fill="black"/>
<path id="Vector_32" opacity="0.3" d="M299.712 400.31C284.712 430.24 263.872 399.07 263.872 399.07C252.062 418.87 238.522 363.29 238.522 363.29C231.222 370.24 227.762 353.17 227.762 353.17C217.702 371.88 211.762 362.95 211.762 362.95C199.952 421.3 187.762 399.42 187.762 399.42C162.892 434.64 149.012 390.62 148.872 390.13C149.452 390.51 179.872 410.28 189.872 385.53C189.872 385.53 194.042 368.53 204.462 362.95C204.462 362.95 213.832 355.95 217.652 344.89C217.652 344.89 222.522 329.6 228.772 341.76C228.772 341.76 230.852 348.96 236.412 353.17C236.412 353.17 242.322 352.63 244.752 367.52C244.752 367.52 246.602 374.43 251.682 373.02C251.682 373.02 256.732 368.28 258.132 385.73C258.132 385.73 261.772 398.61 273.232 397.97C273.252 397.97 290.732 391.48 299.712 400.31Z" fill="black"/>
<path id="Vector_33" opacity="0.3" d="M295.142 286.19C292.682 293.19 289.772 297.54 286.702 300C275.042 309.39 261.102 291.75 261.102 291.75C246.512 305.64 238.182 265.75 238.182 265.75C232.272 273.39 224.322 258.86 224.322 258.86C222.322 270.03 213.862 265.06 213.862 265.06C202.402 309.16 191.462 292.15 191.462 292.15C166.262 318.15 156.562 285.9 156.562 285.9C156.562 285.9 207.962 273.74 226.362 181C226.362 181 235.752 254.29 280.212 279L295.142 286.19Z" fill="black"/>
<path id="Vector_34" opacity="0.3" d="M286.692 300C275.032 309.39 261.092 291.75 261.092 291.75C246.502 305.64 238.172 265.75 238.172 265.75C232.262 273.39 224.312 258.86 224.312 258.86C222.312 270.03 213.852 265.06 213.852 265.06C202.392 309.16 191.452 292.15 191.452 292.15C166.252 318.15 156.552 285.9 156.552 285.9C156.552 285.9 182.252 299.09 194.412 279.64C194.412 279.64 202.052 260.64 212.812 258.86C212.812 258.86 223.892 253.25 226.352 234.86C226.352 234.86 228.442 247.71 237.132 252.57C237.132 252.57 243.512 255.01 249.982 274.8C249.982 274.8 251.712 285.92 260.752 282.1C260.752 282.1 276.752 280.36 282.982 294.6C283.777 296.666 285.048 298.516 286.692 300V300Z" fill="black"/>
</g>
<g id="tree4">
<path id="Vector_35" d="M367.18 534.22V534.28C366.36 535.75 365.46 537.28 364.51 538.69C358.02 548.64 348.51 558.24 334.78 566.69C331.696 568.595 328.316 569.974 324.78 570.77C320.584 571.721 316.337 572.429 312.06 572.89C306.091 573.54 300.051 572.951 294.32 571.16C279.08 566.37 250.22 551.22 242.1 504.51C242.1 504.51 237.91 475.4 252.49 451C257.792 442.316 261.104 432.566 262.19 422.45C263.079 413.38 262.368 404.224 260.09 395.4C260.09 395.4 238.3 324.25 303.28 308.4C307.731 307.312 312.344 307.051 316.89 307.63C320.587 308.089 324.191 309.122 327.57 310.69C341.29 317.03 360.76 332.3 361.91 368.05C362.09 375.979 361.079 383.891 358.91 391.52C355.82 402.8 351.91 426.2 364.36 447.87C366.281 451.16 367.953 454.59 369.36 458.13C374.89 472.28 383.83 504.35 367.18 534.22Z" fill="#0071F2"/>
<path id="Vector_36" opacity="0.1" d="M367.638 533.89V533.95C366.818 535.42 365.918 536.95 364.968 538.36C358.478 548.31 348.968 557.91 335.238 566.36C332.154 568.264 328.775 569.643 325.238 570.44C321.043 571.391 316.795 572.099 312.518 572.56C306.549 573.209 300.51 572.62 294.778 570.83C279.538 566.04 250.678 550.89 242.558 504.18C242.558 504.18 238.368 475.07 252.948 450.67C258.25 441.986 261.562 432.236 262.648 422.12C263.537 413.05 262.826 403.894 260.548 395.07C260.548 395.07 238.758 323.92 303.738 308.07C308.189 306.982 312.803 306.721 317.348 307.3C321.045 307.759 324.649 308.791 328.028 310.36C341.748 316.7 361.218 331.97 362.368 367.72C362.548 375.649 361.537 383.561 359.368 391.19C356.278 402.47 352.368 425.87 364.818 447.54C366.74 450.83 368.411 454.259 369.818 457.8C375.348 471.95 384.288 504.02 367.638 533.89Z" fill="white"/>
<path id="Vector_37" opacity="0.1" d="M367.638 533.89V533.95L364.968 538.36C358.478 548.31 348.968 557.91 335.238 566.36C332.154 568.264 328.775 569.643 325.238 570.44C321.043 571.391 316.795 572.099 312.518 572.56C306.549 573.209 300.51 572.62 294.778 570.83C279.538 566.04 250.678 550.89 242.558 504.18C242.558 504.18 238.368 475.07 252.948 450.67C258.25 441.986 261.562 432.236 262.648 422.12C263.537 413.05 262.826 403.894 260.548 395.07C260.548 395.07 238.758 323.92 303.738 308.07C308.189 306.982 312.803 306.721 317.348 307.3C312.698 308.81 294.068 316.98 293.768 350.49C293.762 356.697 294.737 362.867 296.658 368.77C298.888 375.86 300.578 390.53 288.318 411.6C284.053 418.785 281.667 426.929 281.378 435.28C281.028 449.63 285.768 469.49 310.828 481.38C314.515 483.089 318.397 484.342 322.388 485.11C333.218 487.32 362.598 496.59 367.638 533.89Z" fill="white"/>
<path id="Vector_38" d="M303.64 592.84L307.11 355.7C307.118 355.064 307.377 354.457 307.83 354.012C308.283 353.566 308.894 353.317 309.53 353.32V353.32C310.167 353.323 310.777 353.576 311.228 354.025C311.679 354.474 311.935 355.083 311.94 355.72L314.15 594.11L303.64 592.84Z" fill="#2F2E41"/>
<path id="Vector_39" d="M311.6 517.35C311.6 517.35 333.19 502.22 345.6 448.28C347.111 441.703 348.091 435.014 348.53 428.28C348.99 421.28 349.71 409.67 350.68 392.13C350.713 391.622 350.938 391.147 351.31 390.799C351.681 390.452 352.171 390.259 352.68 390.26C353.21 390.26 353.719 390.471 354.094 390.846C354.469 391.221 354.68 391.73 354.68 392.26C354.79 406.57 353.76 495.26 311.68 529.17L311.6 517.35Z" fill="#2F2E41"/>
<path id="Vector_40" d="M306.51 543.79V550.48C306.51 550.48 275.93 540.6 282.62 443.14C282.62 443.14 278.8 527.54 306.51 543.79Z" fill="#2F2E41"/>
</g>
<g id="tree3">
<path id="Vector_41" d="M572.396 532.424C571.776 548.474 556.026 566.424 556.026 566.424V582.164L553.606 581.474L547.386 579.634V549.094C528.866 529.954 517.126 495.374 517.126 495.374L522.126 489.644C524.807 500.421 528.875 510.804 534.226 520.534L548.556 524.684V488.684L553.626 480.434L554.826 478.484V560.774C565.336 551.634 569.016 533.024 569.016 533.024L572.396 532.424Z" fill="#2F2E41"/>
<path id="Vector_42" opacity="0.1" d="M572.396 532.424C571.776 548.474 556.026 566.424 556.026 566.424V582.164L553.606 581.474V480.474L554.806 478.524V560.814C565.316 551.674 568.996 533.064 568.996 533.064L572.396 532.424Z" fill="black"/>
<path id="Vector_43" d="M562.976 538.064C562.976 538.064 512.446 554.194 489.126 503.634C489.126 503.634 541.306 541.854 555.776 492.164C555.776 492.164 529.896 508.724 486.156 496.414C486.156 496.414 471.826 468.364 481.156 414.854C481.822 410.894 482.642 406.801 483.616 402.574C484.916 396.854 486.476 390.864 488.336 384.644C488.336 384.644 497.336 384.784 514.696 367.554C514.696 367.554 501.696 370.634 493.866 365.164C498.317 353.203 504.015 341.743 510.866 330.974C519.506 317.754 531.006 305.444 544.406 304.064C550.177 303.722 555.948 304.75 561.246 307.064C568.379 310.209 574.15 315.803 577.516 322.834C577.516 322.834 568.646 325.834 561.516 325.694C561.516 325.694 567.966 343.004 586.786 338.194C586.786 338.194 608.286 385.654 613.406 408.194C613.406 408.194 589.846 418.784 586.786 430.044L616.136 420.834L619.546 437.894C619.546 437.894 602.816 440.714 603.156 450.574C603.156 450.574 608.556 445.834 620.496 445.204C620.356 445.214 638.996 531.684 562.976 538.064Z" fill="#0071F2"/>
<path id="Vector_44" opacity="0.1" d="M562.976 538.064C562.976 538.064 512.446 554.194 489.126 503.634C489.126 503.634 541.306 541.854 555.776 492.164C555.776 492.164 529.896 508.724 486.156 496.414C486.156 496.414 471.826 468.364 481.156 414.854C481.822 410.894 482.642 406.801 483.616 402.574C484.916 396.854 486.476 390.864 488.336 384.644C488.336 384.644 497.336 384.784 514.696 367.554C514.696 367.554 501.696 370.634 493.866 365.164C498.317 353.203 504.015 341.743 510.866 330.974C519.506 317.754 531.006 305.444 544.406 304.064C550.177 303.722 555.948 304.75 561.246 307.064C568.379 310.209 574.15 315.803 577.516 322.834C577.516 322.834 568.646 325.834 561.516 325.694C561.516 325.694 567.966 343.004 586.786 338.194C586.786 338.194 608.286 385.654 613.406 408.194C613.406 408.194 589.846 418.784 586.786 430.044L616.136 420.834L619.546 437.894C619.546 437.894 602.816 440.714 603.156 450.574C603.156 450.574 608.556 445.834 620.496 445.204C620.356 445.214 638.996 531.684 562.976 538.064Z" fill="black"/>
<path id="Vector_45" opacity="0.1" d="M529.436 383.904C529.436 383.904 509.436 411.774 481.076 414.904C481.742 410.944 482.562 406.851 483.536 402.624C499.523 398.225 514.932 391.941 529.436 383.904V383.904Z" fill="black"/>
<path id="Vector_46" opacity="0.1" d="M561.126 307.094C554.496 306.274 548.516 308.714 544.216 311.334C540.79 313.482 537.801 316.257 535.406 319.514C523.756 335.014 510.746 331.014 510.746 331.014C519.386 317.794 530.886 305.484 544.286 304.104C550.056 303.759 555.827 304.783 561.126 307.094Z" fill="black"/>
<path id="Vector_47" opacity="0.1" d="M543.436 441.634C543.436 441.634 556.146 393.524 580.646 396.064C581.133 396.117 581.601 396.288 582.007 396.562C582.413 396.837 582.746 397.208 582.976 397.641C583.206 398.074 583.326 398.557 583.326 399.048C583.326 399.538 583.206 400.021 582.976 400.454C581.606 402.914 578.536 406.644 571.746 411.814C570.456 412.814 569.196 413.814 567.986 414.904C562.636 419.724 548.636 432.634 543.436 441.634Z" fill="black"/>
<path id="Vector_48" opacity="0.1" d="M553.606 457.474C553.606 457.474 562.606 428.634 575.736 431.594C576.011 431.653 576.269 431.775 576.491 431.949C576.712 432.123 576.891 432.345 577.014 432.599C577.136 432.852 577.199 433.131 577.198 433.412C577.196 433.694 577.131 433.972 577.006 434.224C576.456 435.394 575.126 437.074 572.216 439.394C572.216 439.394 560.806 447.464 553.606 457.474Z" fill="black"/>
<path id="Vector_49" opacity="0.1" d="M593.226 498.144C593.226 498.144 601.676 512.694 612.126 510.344C614.332 506.926 616.067 503.226 617.286 499.344C617.286 499.344 599.376 500.694 593.226 498.144Z" fill="black"/>
</g>
<g id="tree1">
<path id="Vector_50" d="M797.62 311.43C795.12 363.01 772.16 402.38 772.16 402.38C749.55 450.48 719.92 436.13 719.92 436.13C710.69 462.25 701.14 463.83 701.14 463.83C693.96 465.13 686.4 461.38 679.14 455.06C657.63 436.41 638.48 395.36 638.48 395.36C615 355.23 653.68 284.85 653.68 284.85C680 223.5 717.7 218 717.7 218C786.49 198.89 795.09 271.49 795.09 271.49C797.458 284.663 798.307 298.064 797.62 311.43V311.43Z" fill="#0071F2"/>
<path id="Vector_51" opacity="0.1" d="M797.62 311.43C795.12 363.01 772.16 402.38 772.16 402.38C749.55 450.48 719.92 436.13 719.92 436.13C710.69 462.25 701.14 463.83 701.14 463.83C693.96 465.13 686.4 461.38 679.14 455.06C679.14 455.06 707.78 464.36 716.91 422.71C716.89 422.71 772.74 428.59 797.62 311.43Z" fill="white"/>
<path id="Vector_52" d="M756.24 460.66C752.897 457.221 750.384 453.064 748.892 448.506C747.4 443.948 746.968 439.11 747.63 434.36C747.96 432.136 748.17 429.896 748.26 427.65C748.46 420.08 750.4 402.09 763.88 397.59C763.88 397.59 810.38 372.43 819.94 393.45C819.94 393.45 840.94 425.62 793.5 468.94C793.5 468.94 775.61 486.12 756.24 460.66Z" fill="#0071F2"/>
<path id="Vector_53" d="M793.5 456.94C793.5 456.94 783.67 475.94 745.89 481.28L743.81 481.56L744.02 485.18C738.089 497.294 731.409 509.026 724.02 520.31V514.8C724.02 514.8 717.66 499.19 711.61 488.05L688.67 444.41L696.95 445.68C696.95 445.68 707.79 473.68 724.02 497.92L726.65 384.86C726.65 384.86 711.55 296.77 692.18 275.93H702.69C702.69 275.93 719.25 312.87 728.48 353V275.93H742.82C742.82 275.93 733.26 338.35 734.82 381.99L734.51 441.86C734.51 441.86 762.51 359.05 771.45 350.45L776.95 350.62L781.64 350.77C779.919 352.182 778.295 353.709 776.78 355.34C767.854 364.881 761.339 376.419 757.78 388.99C757.78 388.99 743.13 429.45 743.13 446.64L744.13 475.31C744.13 475.31 745.94 475.23 748.83 474.88C758.01 473.76 778.17 469.88 786.17 456.94H793.5Z" fill="#2F2E41"/>
<path id="Vector_54" opacity="0.1" d="M756.911 460.588C753.569 457.149 751.056 452.992 749.563 448.434C748.071 443.876 747.64 439.038 748.301 434.288C748.631 432.064 748.841 429.824 748.931 427.578C749.131 420.008 751.071 402.018 764.551 397.518C764.551 397.518 811.051 372.358 820.611 393.378C820.611 393.378 841.611 425.548 794.171 468.868C794.171 468.868 776.281 486.048 756.911 460.588Z" fill="black"/>
</g>
<g id="tree2">
<path id="Vector_55" d="M674.83 535.77V579.46C670.783 583.067 666.643 586.577 662.41 589.99V535.77H674.83Z" fill="#2F2E41"/>
<path id="Vector_56" d="M734.42 540.55H605C625.93 534.71 640.26 502.86 648.56 477.41C652.094 466.607 655.016 455.613 657.31 444.48H617.66C629.78 429.48 640.06 399.48 640.06 399.48H630.88C636.43 394.81 641.88 385.19 646.19 375.96C649.59 368.611 652.617 361.095 655.26 353.44H615.09C625 346.82 637.09 317.83 637.09 317.83H618.73C639.12 312.94 652.26 280.57 660.07 251.45C664.196 235.841 667.365 219.995 669.56 204C669.592 203.743 669.718 203.507 669.914 203.337C670.109 203.167 670.361 203.076 670.62 203.08C670.882 203.081 671.135 203.178 671.331 203.353C671.526 203.528 671.651 203.769 671.68 204.03C682.05 293.39 722.52 317.83 722.52 317.83H703.22C704.302 321.077 705.64 324.234 707.22 327.27V327.27C712.757 338.06 721.334 346.991 731.89 352.96H685.45C695.84 394.01 721.56 408.35 721.56 408.35H704.24C705.24 411.27 706.32 413.94 707.44 416.41C718.5 440.8 734.44 444.49 734.44 444.49H682.48C702.39 496.05 716.13 503.56 721.05 504.44H702.73C702.94 504.97 703.16 505.49 703.37 506.01C716.73 538.25 734.42 540.55 734.42 540.55Z" fill="#0071F2"/>
<path id="Vector_57" opacity="0.2" d="M735.15 541.14H605.73C626.66 535.3 640.99 503.45 649.29 478C652.824 467.197 655.746 456.203 658.04 445.07H618.39C630.51 430.07 640.79 400.07 640.79 400.07H631.61C637.16 395.4 642.61 385.78 646.92 376.55C650.32 369.201 653.347 361.685 655.99 354.03H615.82C625.73 347.41 637.82 318.42 637.82 318.42H619.46C639.85 313.53 652.99 281.16 660.8 252.04C664.926 236.432 668.095 220.585 670.29 204.59C670.322 204.333 670.448 204.097 670.644 203.927C670.839 203.757 671.091 203.666 671.35 203.67C671.612 203.671 671.865 203.768 672.061 203.943C672.256 204.119 672.381 204.36 672.41 204.62C682.78 293.98 723.25 318.42 723.25 318.42H703.95C705.032 321.668 706.37 324.824 707.95 327.86V327.86C713.487 338.65 722.064 347.581 732.62 353.55H686.18C696.57 394.6 722.29 408.94 722.29 408.94H704.97C705.97 411.86 707.05 414.53 708.17 417C719.23 441.39 735.17 445.08 735.17 445.08H683.21C703.12 496.64 716.86 504.15 721.78 505.03H703.46C703.67 505.56 703.89 506.08 704.1 506.6C717.46 538.84 735.15 541.14 735.15 541.14Z" fill="black"/>
<path id="Vector_58" opacity="0.2" d="M703.25 317.78C704.332 321.027 705.67 324.184 707.25 327.22C700.87 315.88 694.35 305.08 690.15 298.22C687.604 294.043 684.661 290.121 681.36 286.51C668.45 272.51 662.67 259.8 660.09 251.37C664.216 235.761 667.385 219.915 669.58 203.92C669.612 203.663 669.738 203.427 669.934 203.257C670.129 203.087 670.381 202.996 670.64 203C670.902 203.001 671.155 203.098 671.351 203.273C671.546 203.448 671.671 203.689 671.7 203.95C682.07 293.31 722.54 317.75 722.54 317.75L703.25 317.78Z" fill="black"/>
<path id="Vector_59" opacity="0.2" d="M703.97 407.91C704.97 410.83 706.05 413.5 707.17 415.97C707.17 415.97 672.61 408.17 663.69 395.64C663.69 395.64 653.36 385.08 645.93 375.5C649.33 368.151 652.357 360.635 655 352.98L685.19 352.52C695.58 393.57 721.3 407.91 721.3 407.91H703.97Z" fill="black"/>
<path id="Vector_60" opacity="0.2" d="M702.46 504C702.67 504.53 702.89 505.05 703.1 505.57C702.71 505.4 690.25 499.79 680.53 499.79C680.53 499.79 666.86 501.47 658.53 487.15C656.642 483.797 654.053 480.891 650.94 478.63C650.082 478.015 649.176 477.47 648.23 477C651.764 466.197 654.686 455.203 656.98 444.07H682.14C702.05 495.63 715.79 503.14 720.71 504.02L702.46 504Z" fill="black"/>
</g>
</g>
</svg>
